<?xml version="1.0" encoding="UTF-8"?>
<svg width="177px" height="25px" viewBox="0 0 177 25" version="1.1" xmlns="http://www.w3.org/2000/svg" xmlns:xlink="http://www.w3.org/1999/xlink">
    <!-- Generator: Sketch 42 (36781) - http://www.bohemiancoding.com/sketch -->
    <title>hotukdeals-logo-light</title>
    <desc>Created with Sketch.</desc>
    <defs></defs>
    <g id="hukd" stroke="none" stroke-width="1" fill="none" fill-rule="evenodd">
        <g id="logo" transform="translate(-1.000000, -16.000000)">
            <g id="hotukdeals-logo-light" transform="translate(1.000000, 16.000000)">
                <g id="Layer_2">
                    <g id="Group">
                        <g transform="translate(34.096317, 3.000000)" id="Shape" fill="#FFFFFF">
                            <path d="M4.96402266,18.2 L0.350991501,18.2 L0.350991501,1.4 L4.96402266,0.05 L4.96402266,7.5 C6.61869688,6.85 7.97252125,6.55 9.12577904,6.55 C10.7804533,6.55 11.9838527,6.9 12.786119,7.65 C13.4379603,8.3 13.7388102,9.25 13.7388102,10.55 L13.7388102,18.25 L9.12577904,18.25 L9.12577904,11.65 C9.12577904,10.65 8.52407932,10.15 7.37082153,10.15 C6.66883853,10.15 5.86657224,10.35 4.96402266,10.8 L4.96402266,18.2 Z"></path>
                            <path d="M27.678187,16.8 C26.4747875,17.9 24.6195467,18.45 22.2127479,18.45 C20.1067989,18.45 18.401983,18 17.1985836,17.15 C15.7444759,16.1 15.0424929,14.55 15.0424929,12.5 C15.0424929,10.65 15.6441926,9.2 16.8475921,8.15 C18.0509915,7.1 19.8560907,6.55 22.2628895,6.55 C24.3688385,6.55 26.0736544,7 27.2770538,7.85 C28.7311615,8.9 29.4331445,10.45 29.4331445,12.5 C29.4331445,14.35 28.8314448,15.75 27.678187,16.8 Z M24.6696884,11.45 C24.3688385,10.4 23.5665722,9.9 22.2127479,9.9 C20.507932,9.9 19.6555241,10.75 19.6555241,12.45 C19.6555241,14.15 20.507932,15 22.2127479,15 C23.9175637,15 24.7699717,14.15 24.7699717,12.45 C24.7699717,12.15 24.7699717,11.8 24.6696884,11.45 Z"></path>
                            <path d="M37.2552408,10.25 L37.2552408,12.2 C37.2552408,13.45 37.4056657,14.25 37.7065156,14.6 C38.0073654,14.95 38.6090652,15.1 39.5116147,15.1 C39.9628895,15.1 40.6147309,14.95 41.4671388,14.65 L41.4671388,17.8 C40.1634561,18.25 39.0101983,18.5 37.9572238,18.5 C35.8011331,18.5 34.2968839,18 33.5447592,16.95 C32.9430595,16.15 32.6422096,14.75 32.6422096,12.8 L32.6422096,10.25 L30.0348442,10.25 L30.0348442,6.8 L32.6422096,6.8 L32.6422096,4.05 L37.2552408,2.7 L37.2552408,6.85 L41.4671388,6.85 L41.4671388,10.3 L37.2552408,10.3 L37.2552408,10.25 Z"></path>
                            <path d="M51.2949008,17.85 C49.9912181,18.25 48.888102,18.5 47.9855524,18.5 C44.8767705,18.5 43.3725212,17.15 43.3725212,14.5 L43.3725212,6.8 L47.9855524,6.8 L47.9855524,13.35 C47.9855524,14.35 48.5872521,14.85 49.7405099,14.85 C50.292068,14.85 51.0441926,14.65 51.8966006,14.3 L51.8966006,6.8 L56.5096317,6.8 L56.5096317,14.1 C56.5096317,14.9 56.8606232,15.25 57.6127479,15.25 C57.9135977,15.25 58.1643059,15.2 58.4651558,15.1 L58.4651558,17.85 C57.4121813,18.25 56.3592068,18.5 55.3563739,18.5 C54.0025496,18.5 53.0498584,18.15 52.398017,17.4 C52.1473088,17.55 51.7461756,17.7 51.2949008,17.85 Z"></path>
                            <path d="M64.7328612,18.2 L60.11983,18.2 L60.11983,1.4 L64.7328612,0.05 L64.7328612,10.6 C65.8359773,10.7 66.6382436,10.6 67.1898017,10.35 C68.0422096,10 68.4934844,9.35 68.4934844,8.5 C68.4934844,8 68.3430595,7.45 68.0923513,6.85 L72.8558074,6.85 C73.0563739,7.35 73.1566572,7.9 73.2067989,8.45 C73.2067989,9.05 73.1566572,9.6 72.9560907,10.15 C72.5549575,11.35 71.7025496,12.3 70.3988669,12.95 L74.4101983,18.2 L69.0951841,18.2 L65.886119,14 L64.7328612,14 L64.7328612,18.2 L64.7328612,18.2 Z"></path>
                            <path d="M84.0875354,1.4 L88.7005666,0.05 L88.7005666,14.1 C88.7005666,14.9 89.0515581,15.25 89.8036827,15.25 C90.1045326,15.25 90.3552408,15.2 90.6560907,15.05 L90.6560907,17.85 C89.6031161,18.25 88.5501416,18.5 87.5473088,18.5 C86.3439093,18.5 85.3912181,18.2 84.7393768,17.55 C83.7365439,18.2 82.5331445,18.5 81.1793201,18.5 C79.223796,18.5 77.7195467,18 76.566289,17 C75.3628895,15.95 74.7110482,14.45 74.7110482,12.5 C74.7110482,10.7 75.2626062,9.25 76.3657224,8.15 C77.4688385,7.05 79.0733711,6.5 81.1793201,6.5 C82.2322946,6.5 83.2351275,6.7 84.0875354,7.05 L84.0875354,1.4 L84.0875354,1.4 Z M84.0875354,10.6 C83.586119,10.15 82.884136,9.95 82.031728,9.95 C80.2767705,9.95 79.374221,10.8 79.374221,12.5 C79.374221,14.2 80.2767705,15.05 82.031728,15.05 C82.884136,15.05 83.586119,14.85 84.0875354,14.45 L84.0875354,10.6 Z"></path>
                            <path d="M99.4308782,15.65 C101.085552,15.65 102.84051,15.25 104.645609,14.5 L104.645609,17.4 C102.53966,18.1 100.634278,18.5 98.9796034,18.5 C96.7733711,18.5 95.0184136,18.05 93.7147309,17.2 C92.2104816,16.15 91.4583569,14.6 91.4583569,12.55 C91.4583569,10.6 92.1603399,9.1 93.5141643,8.1 C94.8679887,7.1 96.7232295,6.6 99.029745,6.6 C101.135694,6.6 102.740227,7.05 103.843343,8 C104.796034,8.8 105.247309,9.8 105.247309,11 C105.247309,11.95 104.946459,12.8 104.394901,13.5 L95.9711048,13.5 C96.0713881,14.9 97.2747875,15.65 99.4308782,15.65 Z M100.935127,11.1 C101.035411,10.9 101.035411,10.7 101.035411,10.5 C101.035411,10.3 100.935127,10.1 100.784703,9.9 C100.433711,9.5 99.8320113,9.3 99.029745,9.3 C97.4753541,9.3 96.5226629,9.9 96.1215297,11.1 L100.935127,11.1 L100.935127,11.1 Z"></path>
                            <path d="M120.289802,6.5 L120.289802,14.1 C120.289802,14.9 120.640793,15.25 121.392918,15.25 C121.693768,15.25 121.944476,15.2 122.245326,15.05 L122.245326,17.85 C121.192351,18.25 120.139377,18.5 119.136544,18.5 C117.933144,18.5 116.980453,18.2 116.328612,17.55 C115.325779,18.2 114.12238,18.5 112.768555,18.5 C110.813031,18.5 109.308782,18 108.155524,17 C106.952125,15.95 106.300283,14.45 106.300283,12.5 C106.300283,10.7 106.851841,9.25 107.954958,8.15 C109.058074,7.05 110.662606,6.5 112.768555,6.5 C114.272805,6.5 115.576487,6.85 116.57932,7.6 L120.289802,6.5 Z M115.676771,10.6 C115.175354,10.15 114.473371,9.95 113.620963,9.95 C111.866006,9.95 110.963456,10.8 110.963456,12.5 C110.963456,14.2 111.866006,15.05 113.620963,15.05 C114.473371,15.05 115.175354,14.85 115.676771,14.45 L115.676771,10.6 Z"></path>
                            <polygon points="124.000283 18.2 124.000283 1.4 128.613314 0.05 128.613314 18.25 124.000283 18.25"></polygon>
                            <path d="M130.91983,14.5 C132.975637,15.15 134.630312,15.45 135.933994,15.45 C136.836544,15.45 137.287819,15.25 137.287819,14.8 C137.287819,14.6 137.187535,14.45 136.986969,14.35 C135.833711,14 134.931161,13.75 134.179037,13.6 C131.872521,13 130.669122,11.85 130.669122,10.2 C130.669122,9.6 130.819547,9.1 131.120397,8.65 C132.073088,7.25 133.878187,6.5 136.485552,6.5 C137.839377,6.5 139.443909,6.7 141.249008,7.15 L141.249008,10.1 C139.494051,9.7 138.090085,9.5 137.087252,9.5 C136.184703,9.5 135.733428,9.7 135.733428,10.15 C135.733428,10.4 136.134561,10.65 136.886686,10.8 C137.688952,11 138.340793,11.15 138.892351,11.3 C141.198867,11.95 142.301983,13.1 142.301983,14.65 C142.301983,17.2 140.296317,18.45 136.284986,18.45 C134.780737,18.45 132.975637,18.15 130.869688,17.5 L130.869688,14.5 L130.91983,14.5 Z"></path>
                        </g>
                        <path d="M9.52691218,24.75 C4.51274788,24.75 0.300849858,20.7 0.150424929,15.7 L0.150424929,15.7 L0.150424929,15.7 L0.150424929,15.7 C0.0501416431,13.25 0.952691218,10.9 2.65750708,9.1 C3.71048159,8 6.01699717,6.65 7.2203966,6.05 C10.0283286,4.7 10.7303116,4 11.7331445,3 C11.933711,2.75 12.1844193,2.55 12.4852691,2.25 C12.6858357,2.05 12.8362606,1.9 13.0368272,1.7 C13.8390935,0.85 14.6915014,0 15.8949008,0 C16.0453258,0 16.2458924,0 16.3963173,0.05 C18.1011331,0.4 18.7028329,2.9 18.9535411,4.4 C19.1541076,5.55 19.3045326,6.8 19.4048159,8.05 L19.4048159,8.15 L19.4048159,8.3 C19.5552408,8.2 19.7056657,8.05 19.8560907,7.9 C20.2572238,7.5 20.6082153,7.15 21.0093484,7.15 C22.8144476,7.15 24.5694051,9.75 25.7728045,11.5 L25.8730878,11.65 C26.825779,13.05 27.4274788,14.95 27.4274788,16.6 C27.4274788,20.1 24.5694051,22.9 21.0594901,22.9 C20.1067989,22.9 19.4048159,22.75 18.8031161,22.5 C18.1512748,22.2 17.6498584,22.05 17.2487252,22.05 C16.6971671,22.05 16.2458924,22.3 15.4937677,22.85 C13.8892351,24.1 11.8835694,24.75 9.72747875,24.8 C9.67733711,24.75 9.62719547,24.75 9.52691218,24.75 Z" id="Shape" fill="#FCD806"></path>
                        <path d="M9.37648725,22.55 L9.02549575,22.55 C5.26487252,22.4 2.30651558,19.2 2.45694051,15.5 C2.50708215,13.7 3.30934844,12.05 4.61303116,10.8 C5.41529745,10.05 6.96968839,9.35 7.77195467,9.1 C10.3291785,8.3 11.1815864,7.65 12.3849858,6.65 C12.5855524,6.45 12.8362606,6.25 13.0368272,6.05 C13.6886686,5.45 14.2402266,4.9 14.7917847,4.9 L14.9923513,4.9 C16.2458924,5.2 16.3963173,6.95 16.4966006,8.1 C16.6470255,9.6 16.6971671,10.85 16.6470255,12.2 C16.6470255,12.55 16.7473088,12.85 16.9478754,13.05 C17.0481586,13.15 17.2487252,13.3 17.5495751,13.3 C17.8002833,13.3 18.1011331,13.2 18.3518414,13 C18.4521246,12.9 18.6025496,12.8 18.7028329,12.7 C19.103966,12.35 19.4048159,12.05 19.7056657,11.75 C20.2070822,11.25 20.5580737,10.9 21.0093484,10.85 L21.1096317,10.85 C21.6611898,10.85 22.4634561,11.5 23.4161473,12.4 C23.5164306,12.5 23.6167139,12.6 23.7169972,12.65 C24.6195467,13.45 25.1711048,14.25 25.421813,15.05 L25.421813,15.1 L25.421813,15.2 C25.4719547,15.5 25.5220963,15.8 25.5220963,16.1 C25.5220963,18.45 23.6167139,20.35 21.2600567,20.35 C20.8087819,20.35 20.4076487,20.3 19.9563739,20.15 C19.805949,20.1 19.7056657,20.05 19.6053824,20 L19.5552408,20 C18.9535411,19.75 18.4521246,19.35 18.0509915,18.9 C17.7501416,18.6 17.3991501,18.3 17.0481586,18.3 C16.4464589,18.3 15.8949008,18.4 15.0926346,19.55 C14.5912181,20.35 13.8892351,21.05 13.0869688,21.55 C12.6858357,21.8 12.3849858,21.95 12.3849858,21.95 L11.5325779,22.25 L11.5325779,22.2 C10.8807365,22.45 10.1286119,22.55 9.37648725,22.55 Z" id="Shape" fill="#FC7A03"></path>
                        <ellipse id="Oval" fill="#BF0000" cx="21.2600567" cy="16" rx="2.10594901" ry="2.1"></ellipse>
                        <path d="M9.92804533,19.9 L9.92804533,19.9 L9.62719547,19.9 C7.32067989,19.75 5.56572238,17.8 5.66600567,15.55 L5.66600567,15.5 C5.71614731,14.4 6.21756374,13.4 7.01983003,12.65 C7.52124646,12.2 8.07280453,11.9 8.67450425,11.75 C8.77478754,11.7 8.87507082,11.7 8.97535411,11.65 C10.6300283,11.25 11.382153,10.95 11.9838527,10.45 C12.1342776,10.35 12.2345609,10.2 12.3849858,10.1 C12.6858357,9.8 12.9365439,9.55 13.3376771,9.55 C13.3878187,9.55 13.488102,9.55 13.5382436,9.6 C14.0898017,9.8 14.190085,10.5 14.2402266,11.3 L14.2402266,11.6 C14.3405099,13.1 14.4407932,14.25 13.9895184,16.45 C13.6385269,18.55 12.0339943,19.9 9.92804533,19.9 Z" id="Shape" fill="#BF0000"></path>
                    </g>
                </g>
            </g>
        </g>
    </g>
</svg>